<svg width="40" height="40" viewBox="0 0 40 40" fill="none" xmlns="http://www.w3.org/2000/svg">
<rect width="40" height="40" rx="20" fill="white"/>
<path fill-rule="evenodd" clip-rule="evenodd" d="M20 0C8.95431 0 0 8.95431 0 20C0 31.0457 8.95431 40 20 40C31.0457 40 40 31.0457 40 20C40 8.95431 31.0457 0 20 0ZM13 13C13 9.13401 16.134 6 20 6C23.866 6 27 9.13401 27 13C27 16.866 23.866 20 20 20C16.134 20 13 16.866 13 13ZM6.5564 28.6793C9.85386 25.9836 14.6694 24 20.0001 24C25.3307 24 30.1462 25.9836 33.4437 28.6792C30.5937 33.0846 25.6373 36 20 36C14.3627 36 9.40635 33.0846 6.5564 28.6793Z" fill="#1DA1F2"/>
</svg>
