<svg width="18" height="20" viewBox="0 0 18 20" fill="none" xmlns="http://www.w3.org/2000/svg">
<path fill-rule="evenodd" clip-rule="evenodd" d="M4.11429 3.84615C4.11429 1.72198 5.84119 0 7.97143 0H10.0286C12.1588 0 13.8857 1.72198 13.8857 3.84615V6.39316C14.389 6.43306 14.858 6.4735 15.2684 6.51058C16.5954 6.63049 17.6487 7.67088 17.7692 8.99949C17.8768 10.185 18 11.8139 18 13.0769C18 14.3399 17.8768 15.9689 17.7692 17.1544C17.6487 18.483 16.5954 19.5234 15.2684 19.6433C13.6013 19.7939 10.9663 20 9 20C7.03373 20 4.39868 19.7939 2.73161 19.6433C1.40463 19.5234 0.351322 18.483 0.230777 17.1544C0.123221 15.9689 0 14.3399 0 13.0769C0 11.8139 0.123221 10.185 0.230777 8.99949C0.351322 7.67088 1.40463 6.63049 2.73161 6.51058C3.14199 6.4735 3.61102 6.43306 4.11429 6.39316V3.84615ZM4.93656 7.8735C4.94067 7.87324 4.94478 7.87294 4.94888 7.87261C6.30113 7.7742 7.79059 7.69231 9 7.69231C10.2094 7.69231 11.6989 7.7742 13.0511 7.87261C13.0552 7.87294 13.0593 7.87324 13.0634 7.8735C13.8198 7.92863 14.5327 7.98887 15.1291 8.04277C15.7194 8.0961 16.1797 8.55495 16.2326 9.13811C16.3397 10.3179 16.4571 11.8882 16.4571 13.0769C16.4571 14.2657 16.3397 15.8359 16.2326 17.0157C16.1797 17.5989 15.7194 18.0577 15.1291 18.1111C13.4637 18.2616 10.8899 18.4615 9 18.4615C7.11008 18.4615 4.53629 18.2616 2.87085 18.1111C2.28062 18.0577 1.82027 17.5989 1.76736 17.0157C1.66032 15.8359 1.54286 14.2657 1.54286 13.0769C1.54286 11.8882 1.66032 10.3179 1.76736 9.13811C1.82027 8.55495 2.28062 8.0961 2.87085 8.04277C3.4673 7.98887 4.18024 7.92863 4.93656 7.8735ZM12.3429 6.28188C11.2001 6.2084 10.0116 6.15385 9 6.15385C7.98843 6.15385 6.79986 6.2084 5.65714 6.28188V3.84615C5.65714 2.57165 6.69328 1.53846 7.97143 1.53846H10.0286C11.3067 1.53846 12.3429 2.57165 12.3429 3.84615V6.28188ZM9 11.2821C9.42605 11.2821 9.77143 11.6264 9.77143 12.0513V14.1026C9.77143 14.5274 9.42605 14.8718 9 14.8718C8.57395 14.8718 8.22857 14.5274 8.22857 14.1026V12.0513C8.22857 11.6264 8.57395 11.2821 9 11.2821Z" fill="#A3A3A9"/>
</svg>
