<svg width="150" height="150" viewBox="0 0 150 150" fill="none" xmlns="http://www.w3.org/2000/svg">
<mask id="mask0_239_61" style="mask-type:alpha" maskUnits="userSpaceOnUse" x="0" y="0" width="150" height="150">
<circle cx="75" cy="75" r="75" transform="matrix(-1 0 0 1 150 0)" fill="#78AEB1"/>
</mask>
<g mask="url(#mask0_239_61)">
<circle cx="75" cy="75" r="75" transform="matrix(-1 0 0 1 150 0)" fill="#78AEB1"/>
<path fill-rule="evenodd" clip-rule="evenodd" d="M102.353 54.7059C102.353 56.2021 102.273 57.6749 102.117 59.1177C102.117 59.1177 103.088 57.4523 104.118 56.9118C104.219 56.8586 104.313 56.8038 104.402 56.7513C104.739 56.5541 105.019 56.3902 105.441 56.4706C106.14 56.6034 106.048 57.2946 105.948 58.0512V58.0512V58.0513C105.9 58.4095 105.851 58.7824 105.882 59.1177C105.882 59.1177 105.872 62.9145 105.441 65.2941C105.092 67.2272 104.841 68.3206 104.118 70.1471C103.551 71.5799 102.353 73.6765 102.353 73.6765L102.068 73.6716C101.205 80.9391 98.4329 87.4247 94.4116 92.2998V103.235L97.0587 107.647L91.3234 127.5H59.1175L54.8897 103.235V87.3529C52.5576 83.1172 51.003 78.1564 50.4846 72.7948L50.4446 72.7941C50.4446 72.7941 49.492 73.0382 48.9707 72.7941C48.457 72.5536 48.3995 72.0914 48.3359 71.5797C48.2955 71.2545 48.2525 70.9093 48.0884 70.5883C47.7631 69.9522 47.3832 69.5244 47.0073 69.1012C46.6034 68.6465 46.2042 68.197 45.8825 67.5C45.1829 65.9843 45.1313 64.851 45.0649 63.396C45.048 63.0242 45.0301 62.6314 45.0001 62.2059C44.9844 61.9813 44.9681 61.7706 44.9527 61.5696C44.8617 60.3867 44.7969 59.5451 45.0001 58.2353C45.056 57.8753 45.0542 57.4993 45.0524 57.1367C45.048 56.2511 45.0441 55.4455 45.8825 55.1471C46.3182 54.992 46.6258 55.0458 47.0509 55.1203L47.0517 55.1204L47.0535 55.1207C47.1026 55.1293 47.1533 55.1382 47.206 55.1471C48.9294 55.4368 50.4446 58.2353 50.4446 58.2353C50.3452 57.0759 50.2943 55.8984 50.2943 54.7059C50.2943 36.6754 61.948 22.0588 76.3237 22.0588C90.6993 22.0588 102.353 36.6754 102.353 54.7059Z" fill="#EACBAF"/>
<path d="M88.6764 29.1176C84.3493 27.4099 81.2846 30.2171 76.7646 29.1176C74.06 28.4598 72.9274 26.6007 70.147 26.4706C66.144 26.2833 63.9735 28.3323 60.8823 30.8824C58.619 32.7494 57.0376 33.8624 56.0293 36.6176C55.0228 39.3682 57.0359 41.3671 56.0293 44.1176C55.021 46.8729 52.0864 47.0637 51.1764 49.8529C50.4282 52.146 51.1764 56.0294 51.1764 56.0294V63.9706C51.1764 63.9706 48.4016 58.4562 47.2058 54.7059C45.9227 50.6818 45.3545 48.3265 44.9999 44.1176C44.754 41.1991 44.243 39.4471 44.9999 36.6176C45.9015 33.2476 47.0708 31.2226 49.8528 29.1176C52.4597 27.1452 54.5372 26.752 57.794 26.4706H60.8823L59.5587 25.1471C59.5587 25.1471 59.0089 22.1078 59.5587 20.2941C60.5137 17.1441 65.7352 14.5588 65.7352 14.5588C65.7352 14.5588 72.3352 11.87 76.7646 11.9118C81.0266 11.952 87.3528 14.5588 87.3528 14.5588C87.3528 14.5588 94.825 19.0948 98.8234 22.9412C102.353 26.3364 104.911 28.1141 106.765 32.6471C108.471 36.8208 108.301 39.6134 108.088 44.1176C107.863 48.8776 105.882 56.9118 105.882 56.9118C105.882 56.9118 105 55.5882 103.676 57.3529C102.353 59.1176 101.47 65.2941 101.47 65.2941V59.1176C101.47 59.1176 102.183 54.4586 101.47 51.6176C100.644 48.3216 97.8852 47.4137 97.0587 44.1176C96.3464 41.2767 98.0114 39.3873 97.0587 36.6176C95.6299 32.464 92.7622 30.7302 88.6764 29.1176Z" fill="#161925"/>
<path d="M67.5001 117.794C69.4036 118.987 70.7192 119.341 72.353 120.882C74.4385 122.85 76.3236 127.059 76.3236 127.059C76.3236 127.059 78.363 124.274 79.853 122.647C83.4144 118.757 87.3408 118.531 90.4412 114.265C92.5707 111.335 93.5295 105.882 93.5295 105.882L94.4118 96.6176H94.853L97.0589 101.912L137.206 122.647C137.206 122.647 141.36 123.622 143.382 125.294C144.607 126.306 146.029 128.382 146.029 128.382L156.618 150.882H-5.73523C-5.73523 150.882 -4.19037 145.751 -3.08817 142.5C-1.07458 136.561 -1.3921 132.297 2.64712 127.5C5.42127 124.205 7.85935 123.23 11.4707 120.882C18.5133 116.304 30.8824 111.618 30.8824 111.618L50.7354 101.471L54.7059 96.6176C54.7059 96.6176 54.6686 99.714 54.7059 101.471C54.7604 104.031 54.9247 104.895 56.0295 107.206C57.1638 109.579 57.7691 111.014 59.5589 112.941C62.0323 115.604 64.4203 115.864 67.5001 117.794Z" fill="#161925"/>
</g>
</svg>
