<svg width="150" height="150" viewBox="0 0 150 150" fill="none" xmlns="http://www.w3.org/2000/svg">
<circle cx="75" cy="75" r="75" fill="#FED28F"/>
<mask id="mask0_239_5" style="mask-type:alpha" maskUnits="userSpaceOnUse" x="0" y="0" width="150" height="150">
<circle cx="75" cy="75" r="75" fill="#6E8F7B"/>
</mask>
<g mask="url(#mask0_239_5)">
<ellipse cx="74.5588" cy="69.2647" rx="37.5" ry="33.9706" fill="#472E1A"/>
<path d="M95.2941 54.2647C95.2941 64.4813 91.513 73.4501 85.8204 78.5294C82.6885 81.3239 78.9779 82.9412 74.9999 82.9412C67.6832 82.9412 61.2709 77.4698 57.7002 69.2647C56.9208 67.4737 56.2768 65.5524 55.7883 63.5294C55.0866 60.6231 54.7058 57.5067 54.7058 54.2647C54.7058 52.9174 54.7716 51.5919 54.8988 50.2941C56.267 36.3357 64.7453 25.5882 74.9999 25.5882C86.2081 25.5882 95.2941 38.4271 95.2941 54.2647Z" fill="#6F391D"/>
<path d="M54.7058 54.2647C54.7058 52.9174 54.7716 51.5919 54.8988 50.2941C54.8988 50.2941 54.0984 48.2073 52.9411 47.647C51.8556 47.1215 50.9922 47.2516 49.8529 47.647C47.5917 48.4319 46.5094 50.6312 45.8823 52.9412C45.2504 55.269 45.9714 56.8397 46.7647 59.1176C47.2992 60.6526 47.9381 61.3917 48.9705 62.647C49.7444 63.5879 50.0943 64.2932 51.1764 64.8529C52.4102 65.4911 53.5727 66.0975 54.7058 65.2941C55.3654 64.8265 55.7883 63.5294 55.7883 63.5294C55.0866 60.6231 54.7058 57.5067 54.7058 54.2647Z" fill="#6F391D"/>
<path d="M74.9999 82.9412C67.6832 82.9412 61.2709 77.4698 57.7002 69.2647C57.7002 69.2647 59.7105 76.4476 60 81.1764C60.1368 83.412 60 86.9117 60 86.9117L57.7002 97.0588L93.9705 97.9412C93.9705 97.9412 89.7163 96.1417 87.3529 94.4117C86.0711 93.4735 84.2647 91.7647 84.2647 91.7647C84.2647 91.7647 83.8235 88.5452 83.8235 86.4706C83.8235 84.3959 84.2647 81.1764 84.2647 81.1764L85.8204 78.5294C82.6885 81.3239 78.9779 82.9412 74.9999 82.9412Z" fill="#6F391D"/>
<path d="M82.5001 31.3235C79.908 29.8856 76.3236 26.9117 76.3236 26.9117C76.3236 26.9117 74.9671 28.7364 73.6765 29.1176C71.7425 29.6889 68.8236 27.3529 68.8236 27.3529C68.8236 27.3529 67.8818 29.8395 67.0589 31.3235C65.5713 34.0062 64.5334 35.5018 62.206 37.5C60.5015 38.9632 58.4432 38.6241 57.353 40.5882C56.4295 42.2521 57.3139 43.5811 56.9118 45.4412C56.4049 47.7867 54.706 51.1765 54.706 51.1765C54.706 51.1765 54.7424 47.1092 52.9413 45.8823C51.0847 44.6177 47.206 46.3235 47.206 46.3235C47.206 46.3235 39.2024 55.2081 41.4707 60.8823C43.7308 66.5363 54.2648 67.0588 55.5883 67.5C56.9118 67.9412 59.5589 84.7059 59.5589 84.7059C59.5589 84.7059 59.7079 93.066 56.4707 96.6176C54.7968 98.454 53.5935 99.5704 51.1766 100.147C47.884 100.933 44.7086 100.733 42.7942 97.9412C41.1377 95.5257 44.9722 92.3995 42.7942 90.4412C40.996 88.8243 38.6867 91.2518 36.6177 90C33.0524 87.8428 38.8366 81.6064 35.2942 79.4117C34.5055 78.9231 33.8759 79.0198 33.0883 78.5294C29.9311 76.5636 32.773 72.4676 30.8824 69.2647C29.5805 67.059 27.1812 66.8725 26.4707 64.4117C25.3147 60.4081 31.6131 59.3114 31.7648 55.147C31.8349 53.2221 30.5052 52.1831 30.8824 50.2941C31.2943 48.2318 33.5125 47.9349 33.9707 45.8823C34.3479 44.1924 33.2012 43.1707 33.5295 41.4706C34.327 37.3407 41.3293 39.3738 42.353 35.2941C42.858 33.2818 41.1825 31.9422 41.9118 30C42.9714 27.1785 46.6541 28.3887 48.5295 26.0294C49.8249 24.3997 49.1319 22.5041 50.7354 21.1765C52.2484 19.9236 53.8903 20.8407 55.5883 19.8529C57.2732 18.8728 57.3849 17.2162 59.1177 16.3235C61.7215 14.9822 64.6394 18.4833 66.6177 16.3235C67.504 15.3559 66.9059 14.0413 67.9413 13.2353C69.0373 12.382 70.2738 13.4991 71.4707 12.7941C72.999 11.8938 72.1499 9.72682 73.6765 8.82351C76.072 7.40608 80.2942 11.4706 80.2942 11.4706C80.2942 11.4706 82.3281 8.68508 84.2648 7.94116C86.8581 6.945 88.6902 7.93859 91.3236 8.82351C94.405 9.85899 95.4688 11.7937 98.3824 13.2353C101.509 14.7823 104.622 13.5703 106.765 16.3235C108.696 18.8047 106.902 21.3532 108.088 24.2647C109.93 28.7831 115.211 28.8155 116.471 33.5294C117.182 36.1926 115.773 37.9212 116.471 40.5882C117.293 43.7333 120.222 44.4641 120.882 47.647C121.556 50.892 118.958 52.7703 119.559 56.0294C120.006 58.4553 122.078 59.3012 122.206 61.7647C122.35 64.5444 119.42 65.6023 119.559 68.3823C119.721 71.6291 124.412 72.2205 123.971 75.4412C123.605 78.1075 121.425 78.7958 119.559 80.7353C117.188 83.1998 114.54 83.4476 112.941 86.4706C111.63 88.9498 112.906 91.0379 111.618 93.5294C109.576 97.4792 106.768 99.6238 102.353 100.147C98.9916 100.545 93.9707 97.9412 93.9707 97.9412L87.353 84.2647L93.9707 73.2353C93.9707 73.2353 94.9793 66.2557 94.853 61.7647C94.7605 58.4744 94.1279 56.6702 93.9707 53.3823C93.839 50.6288 94.7975 48.9532 93.9707 46.3235C93.1536 43.7248 91.2748 42.9957 90.0001 40.5882C88.6224 37.9864 89.5104 35.5327 87.353 33.5294C85.8275 32.1128 84.3205 32.3333 82.5001 31.3235Z" fill="#472E1A"/>
<path d="M72.7941 97.5C67.0262 97.1452 58.2352 94.8529 58.2352 94.8529C58.2352 94.8529 53.4813 98.796 49.8529 100.147C45.6271 101.721 42.6316 99.9616 38.3823 101.471C34.1485 102.974 31.5637 104.205 28.6764 107.647C25.0698 111.947 24.2646 121.324 24.2646 121.324L28.6764 157.941L132.794 156.618V123.971C132.794 123.971 133.795 109.543 127.941 104.118C122.513 99.0873 110.735 100.147 109.412 100.147C108.088 100.147 102.004 100.476 97.4999 99.2647C94.4412 98.4419 89.9999 96.1765 89.9999 96.1765C89.9999 96.1765 79.5205 97.9138 72.7941 97.5Z" fill="#A2B3BF"/>
</g>
</svg>
