<?xml version="1.0" encoding="UTF-8"?>
<!DOCTYPE svg PUBLIC "-//W3C//DTD SVG 1.1//EN" "http://www.w3.org/Graphics/SVG/1.1/DTD/svg11.dtd">
<svg xmlns="http://www.w3.org/2000/svg" version="1.1" width="1920px" height="1080px" style="shape-rendering:geometricPrecision; text-rendering:geometricPrecision; image-rendering:optimizeQuality; fill-rule:evenodd; clip-rule:evenodd" xmlns:xlink="http://www.w3.org/1999/xlink">
<g><path style="opacity:0.966" fill="#f2f3f6" d="M 1210.5,352.5 C 1213.56,353.201 1216.73,353.868 1220,354.5C 1221.58,354.507 1223.25,354.174 1225,353.5C 1228.81,355.334 1232.65,357.167 1236.5,359C 1236.17,359.333 1235.83,359.667 1235.5,360C 1239.31,362.909 1240.31,366.576 1238.5,371C 1238.61,372.895 1239.28,374.562 1240.5,376C 1243.55,376.533 1246.38,376.367 1249,375.5C 1252.72,376.704 1256.55,377.538 1260.5,378C 1261.47,379.758 1262.64,380.258 1264,379.5C 1266.07,380.525 1268.24,381.358 1270.5,382C 1270.17,382.333 1269.83,382.667 1269.5,383C 1271.17,383.333 1272.83,383.667 1274.5,384C 1276.01,387.17 1277.51,390.337 1279,393.5C 1279.72,392.549 1280.55,392.383 1281.5,393C 1279.61,394.101 1278.94,395.434 1279.5,397C 1282.74,397.283 1283.08,398.117 1280.5,399.5C 1281.73,400.281 1283.06,400.781 1284.5,401C 1284.17,403.333 1283.83,405.667 1283.5,408C 1285.79,409.197 1286.12,410.863 1284.5,413C 1285.08,414.811 1285.58,416.645 1286,418.5C 1289.41,421.064 1293.08,421.73 1297,420.5C 1299.06,422.563 1301.39,424.23 1304,425.5C 1305.13,428.77 1305.29,431.603 1304.5,434C 1306.39,437.182 1307.72,440.682 1308.5,444.5C 1308.54,449.641 1308.21,454.808 1307.5,460C 1307.61,462.255 1308.61,463.922 1310.5,465C 1309.7,468.745 1309.2,472.579 1309,476.5C 1308.67,472.833 1308.33,469.167 1308,465.5C 1307.83,473.521 1307.33,481.521 1306.5,489.5C 1305.26,490.246 1303.93,490.579 1302.5,490.5C 1301.65,500.55 1301.65,510.216 1302.5,519.5C 1303.03,521.101 1304.03,521.601 1305.5,521C 1305.1,518.731 1304.93,516.231 1305,513.5C 1306.82,513.968 1308.99,514.301 1311.5,514.5C 1311.83,499.02 1311.83,483.687 1311.5,468.5C 1311.83,467.167 1312.17,465.833 1312.5,464.5C 1313.68,465.855 1314.68,465.688 1315.5,464C 1314.62,462.644 1314.29,461.144 1314.5,459.5C 1313.32,459.719 1312.32,459.386 1311.5,458.5C 1312.61,456.615 1313.44,454.615 1314,452.5C 1314.72,453.451 1315.55,453.617 1316.5,453C 1317.27,450.947 1318.6,449.447 1320.5,448.5C 1321.17,448.667 1321.83,448.833 1322.5,449C 1318.54,450.211 1317.87,452.211 1320.5,455C 1320.04,455.414 1319.71,455.914 1319.5,456.5C 1320.27,457.711 1321.11,457.711 1322,456.5C 1322.69,457.025 1323.19,457.692 1323.5,458.5C 1321.28,460.175 1318.61,461.175 1315.5,461.5C 1316,462.5 1316.5,463.5 1317,464.5C 1318.07,463.72 1319.24,463.887 1320.5,465C 1317.97,466.017 1317.97,467.184 1320.5,468.5C 1319.14,469.893 1318.3,471.559 1318,473.5C 1317.67,488.5 1317.33,503.5 1317,518.5C 1316.69,519.766 1316.19,520.933 1315.5,522C 1315.42,524.76 1315.75,527.593 1316.5,530.5C 1315.79,532.776 1315.29,535.109 1315,537.5C 1314.63,522.784 1314.8,508.284 1315.5,494C 1314.87,493.25 1314.37,492.416 1314,491.5C 1313.68,514.915 1312.85,534.915 1311.5,551.5C 1311.41,549.297 1311.41,547.13 1311.5,545C 1310.38,544.751 1309.38,544.251 1308.5,543.5C 1309.6,539.558 1309.77,535.558 1309,531.5C 1308.67,533.833 1308.33,536.167 1308,538.5C 1307.79,535.377 1307.13,532.377 1306,529.5C 1305.63,530.416 1305.13,531.25 1304.5,532C 1307.17,533 1307.17,534 1304.5,535C 1307.17,535.667 1307.17,536.333 1304.5,537C 1307.17,537.667 1307.17,538.333 1304.5,539C 1307.17,539.667 1307.17,540.333 1304.5,541C 1305.17,541.333 1305.83,541.667 1306.5,542C 1305.48,543.049 1305.32,544.216 1306,545.5C 1306.93,547.307 1308.09,548.974 1309.5,550.5C 1306.97,551.816 1306.97,552.983 1309.5,554C 1306.83,554.667 1306.83,555.333 1309.5,556C 1308.57,556.388 1307.91,557.055 1307.5,558C 1308.51,559.338 1309.51,560.671 1310.5,562C 1309.27,562.779 1308.27,563.779 1307.5,565C 1308.67,566.587 1309.67,568.253 1310.5,570C 1309.55,570.483 1308.55,570.649 1307.5,570.5C 1307.55,573.14 1308.22,575.64 1309.5,578C 1309.03,580.825 1307.69,581.158 1305.5,579C 1305.98,573.06 1306.31,567.06 1306.5,561C 1306.12,559.365 1305.46,557.865 1304.5,556.5C 1302.58,560.396 1302.25,564.396 1303.5,568.5C 1303.17,569.167 1302.83,569.833 1302.5,570.5C 1301.36,563.927 1300.53,563.927 1300,570.5C 1299.5,573.531 1299.67,576.531 1300.5,579.5C 1299.45,579.351 1298.45,579.517 1297.5,580C 1299.81,580.497 1302.14,580.663 1304.5,580.5C 1304.41,584.495 1305.07,587.995 1306.5,591C 1305.78,593.122 1304.61,593.622 1303,592.5C 1302.38,593.449 1302.55,594.282 1303.5,595C 1302.83,595.667 1302.17,596.333 1301.5,597C 1303,597.583 1304.33,598.416 1305.5,599.5C 1304.3,600.967 1304.3,602.467 1305.5,604C 1305.33,604.5 1305.17,605 1305,605.5C 1304.58,604.328 1303.91,603.328 1303,602.5C 1303.29,607.407 1302.79,612.407 1301.5,617.5C 1300.91,617.291 1300.41,616.957 1300,616.5C 1299.8,618.402 1298.97,619.902 1297.5,621C 1298.05,621.925 1298.71,622.758 1299.5,623.5C 1300.94,643.541 1300.61,663.541 1298.5,683.5C 1299.15,690.341 1299.81,697.174 1300.5,704C 1299.7,705.092 1299.04,706.259 1298.5,707.5C 1299.8,711.995 1299.8,716.495 1298.5,721C 1300.98,724.128 1302.81,727.628 1304,731.5C 1304.69,732.357 1305.52,733.023 1306.5,733.5C 1307.17,781.665 1307.83,829.665 1308.5,877.5C 1308.63,886.184 1308.3,894.851 1307.5,903.5C 1307.93,908.277 1306.6,912.443 1303.5,916C 1297.47,916.17 1291.47,916.67 1285.5,917.5C 1297.84,918.247 1310.17,919.08 1322.5,920C 1326.2,921.192 1328.2,923.692 1328.5,927.5C 1193.48,928.8 1058.48,928.8 923.5,927.5C 923.333,642.5 923.5,357.5 924,72.5C 924.11,68.1446 924.943,63.9779 926.5,60C 933.086,58.9086 939.753,58.0753 946.5,57.5C 947.044,51.0937 948.044,44.7603 949.5,38.5C 950.729,37.7189 952.062,37.2189 953.5,37C 966.162,36.5001 978.829,36.3334 991.5,36.5C 991.203,32.2325 991.536,28.0659 992.5,24C 1022.5,23.5 1052.5,23.3334 1082.5,23.5C 1082.5,133.167 1082.5,242.833 1082.5,352.5C 1125.17,352.5 1167.83,352.5 1210.5,352.5 Z M 1082.5,510.5 C 1104.83,510.5 1127.17,510.5 1149.5,510.5C 1149.06,517.992 1149.89,525.325 1152,532.5C 1152.41,532.957 1152.91,533.291 1153.5,533.5C 1157.54,556.418 1159.21,579.585 1158.5,603C 1156.39,658.475 1154.72,713.975 1153.5,769.5C 1151.36,781.405 1150.03,793.405 1149.5,805.5C 1142.46,805.28 1135.46,805.614 1128.5,806.5C 1128.5,807.5 1128.5,808.5 1128.5,809.5C 1112.65,808.126 1097.32,810.126 1082.5,815.5C 1082.5,713.833 1082.5,612.167 1082.5,510.5 Z"/></g>
<g><path style="opacity:0.851" fill="#f3f4f7" d="M 1308.5,877.5 C 1307.83,829.665 1307.17,781.665 1306.5,733.5C 1305.52,733.023 1304.69,732.357 1304,731.5C 1302.81,727.628 1300.98,724.128 1298.5,721C 1299.8,716.495 1299.8,711.995 1298.5,707.5C 1299.04,706.259 1299.7,705.092 1300.5,704C 1299.81,697.174 1299.15,690.341 1298.5,683.5C 1300.61,663.541 1300.94,643.541 1299.5,623.5C 1298.71,622.758 1298.05,621.925 1297.5,621C 1298.97,619.902 1299.8,618.402 1300,616.5C 1300.41,616.957 1300.91,617.291 1301.5,617.5C 1302.79,612.407 1303.29,607.407 1303,602.5C 1303.91,603.328 1304.58,604.328 1305,605.5C 1305.17,605 1305.33,604.5 1305.5,604C 1304.3,602.467 1304.3,600.967 1305.5,599.5C 1304.33,598.416 1303,597.583 1301.5,597C 1302.17,596.333 1302.83,595.667 1303.5,595C 1302.55,594.282 1302.38,593.449 1303,592.5C 1304.61,593.622 1305.78,593.122 1306.5,591C 1305.07,587.995 1304.41,584.495 1304.5,580.5C 1302.14,580.663 1299.81,580.497 1297.5,580C 1298.45,579.517 1299.45,579.351 1300.5,579.5C 1299.67,576.531 1299.5,573.531 1300,570.5C 1300.53,563.927 1301.36,563.927 1302.5,570.5C 1302.83,569.833 1303.17,569.167 1303.5,568.5C 1302.25,564.396 1302.58,560.396 1304.5,556.5C 1305.46,557.865 1306.12,559.365 1306.5,561C 1306.31,567.06 1305.98,573.06 1305.5,579C 1307.69,581.158 1309.03,580.825 1309.5,578C 1308.22,575.64 1307.55,573.14 1307.5,570.5C 1308.55,570.649 1309.55,570.483 1310.5,570C 1309.67,568.253 1308.67,566.587 1307.5,565C 1308.27,563.779 1309.27,562.779 1310.5,562C 1309.51,560.671 1308.51,559.338 1307.5,558C 1307.91,557.055 1308.57,556.388 1309.5,556C 1306.83,555.333 1306.83,554.667 1309.5,554C 1306.97,552.983 1306.97,551.816 1309.5,550.5C 1308.09,548.974 1306.93,547.307 1306,545.5C 1305.32,544.216 1305.48,543.049 1306.5,542C 1305.83,541.667 1305.17,541.333 1304.5,541C 1307.17,540.333 1307.17,539.667 1304.5,539C 1307.17,538.333 1307.17,537.667 1304.5,537C 1307.17,536.333 1307.17,535.667 1304.5,535C 1307.17,534 1307.17,533 1304.5,532C 1305.13,531.25 1305.63,530.416 1306,529.5C 1307.13,532.377 1307.79,535.377 1308,538.5C 1308.33,536.167 1308.67,533.833 1309,531.5C 1309.77,535.558 1309.6,539.558 1308.5,543.5C 1309.38,544.251 1310.38,544.751 1311.5,545C 1311.41,547.13 1311.41,549.297 1311.5,551.5C 1312.85,534.915 1313.68,514.915 1314,491.5C 1314.37,492.416 1314.87,493.25 1315.5,494C 1314.8,508.284 1314.63,522.784 1315,537.5C 1315.29,535.109 1315.79,532.776 1316.5,530.5C 1315.75,527.593 1315.42,524.76 1315.5,522C 1316.19,520.933 1316.69,519.766 1317,518.5C 1317.33,503.5 1317.67,488.5 1318,473.5C 1318.3,471.559 1319.14,469.893 1320.5,468.5C 1317.97,467.184 1317.97,466.017 1320.5,465C 1319.24,463.887 1318.07,463.72 1317,464.5C 1316.5,463.5 1316,462.5 1315.5,461.5C 1318.61,461.175 1321.28,460.175 1323.5,458.5C 1323.19,457.692 1322.69,457.025 1322,456.5C 1321.11,457.711 1320.27,457.711 1319.5,456.5C 1319.71,455.914 1320.04,455.414 1320.5,455C 1317.87,452.211 1318.54,450.211 1322.5,449C 1321.83,448.833 1321.17,448.667 1320.5,448.5C 1318.6,449.447 1317.27,450.947 1316.5,453C 1315.55,453.617 1314.72,453.451 1314,452.5C 1313.44,454.615 1312.61,456.615 1311.5,458.5C 1312.32,459.386 1313.32,459.719 1314.5,459.5C 1314.29,461.144 1314.62,462.644 1315.5,464C 1314.68,465.688 1313.68,465.855 1312.5,464.5C 1312.17,465.833 1311.83,467.167 1311.5,468.5C 1311.83,483.687 1311.83,499.02 1311.5,514.5C 1308.99,514.301 1306.82,513.968 1305,513.5C 1304.93,516.231 1305.1,518.731 1305.5,521C 1304.03,521.601 1303.03,521.101 1302.5,519.5C 1301.65,510.216 1301.65,500.55 1302.5,490.5C 1303.93,490.579 1305.26,490.246 1306.5,489.5C 1307.33,481.521 1307.83,473.521 1308,465.5C 1308.33,469.167 1308.67,472.833 1309,476.5C 1309.2,472.579 1309.7,468.745 1310.5,465C 1308.61,463.922 1307.61,462.255 1307.5,460C 1308.21,454.808 1308.54,449.641 1308.5,444.5C 1307.72,440.682 1306.39,437.182 1304.5,434C 1305.29,431.603 1305.13,428.77 1304,425.5C 1301.39,424.23 1299.06,422.563 1297,420.5C 1293.08,421.73 1289.41,421.064 1286,418.5C 1285.58,416.645 1285.08,414.811 1284.5,413C 1286.12,410.863 1285.79,409.197 1283.5,408C 1283.83,405.667 1284.17,403.333 1284.5,401C 1283.06,400.781 1281.73,400.281 1280.5,399.5C 1283.08,398.117 1282.74,397.283 1279.5,397C 1278.94,395.434 1279.61,394.101 1281.5,393C 1280.55,392.383 1279.72,392.549 1279,393.5C 1277.51,390.337 1276.01,387.17 1274.5,384C 1272.83,383.667 1271.17,383.333 1269.5,383C 1269.83,382.667 1270.17,382.333 1270.5,382C 1268.24,381.358 1266.07,380.525 1264,379.5C 1262.64,380.258 1261.47,379.758 1260.5,378C 1256.55,377.538 1252.72,376.704 1249,375.5C 1246.38,376.367 1243.55,376.533 1240.5,376C 1239.28,374.562 1238.61,372.895 1238.5,371C 1240.31,366.576 1239.31,362.909 1235.5,360C 1235.83,359.667 1236.17,359.333 1236.5,359C 1232.65,357.167 1228.81,355.334 1225,353.5C 1223.25,354.174 1221.58,354.507 1220,354.5C 1216.73,353.868 1213.56,353.201 1210.5,352.5C 1225.37,351.097 1239.7,353.097 1253.5,358.5C 1255.53,359.597 1256.87,361.263 1257.5,363.5C 1258.5,367.5 1259.5,371.5 1260.5,375.5C 1267.59,375.963 1274.59,376.963 1281.5,378.5C 1283.82,385.258 1284.98,392.258 1285,399.5C 1290.35,400.066 1295.51,401.4 1300.5,403.5C 1303.6,409.073 1305.26,415.073 1305.5,421.5C 1306.09,421.709 1306.59,422.043 1307,422.5C 1308.48,433.124 1309.65,433.124 1310.5,422.5C 1317.12,421.62 1323.79,421.287 1330.5,421.5C 1330.34,414.453 1330.84,407.453 1332,400.5C 1333.17,399.107 1334.67,398.273 1336.5,398C 1341.82,397.501 1347.16,397.334 1352.5,397.5C 1352.67,393.154 1352.5,388.821 1352,384.5C 1350.93,383.809 1349.77,383.309 1348.5,383C 1346.29,380.169 1343.95,377.502 1341.5,375C 1344.06,369.864 1346.4,364.531 1348.5,359C 1350.02,357.806 1351.19,356.306 1352,354.5C 1352.49,341.824 1353.15,329.157 1354,316.5C 1354.64,313.453 1356.14,310.953 1358.5,309C 1367.18,308.249 1375.84,307.416 1384.5,306.5C 1386.2,302.954 1388.2,299.621 1390.5,296.5C 1400.31,292.133 1410.64,289.8 1421.5,289.5C 1421.1,281.055 1421.76,272.721 1423.5,264.5C 1433.15,263.456 1442.82,262.456 1452.5,261.5C 1454.55,254.762 1458.88,250.095 1465.5,247.5C 1466.07,245.083 1467.07,242.916 1468.5,241C 1475.75,239.609 1483.08,239.109 1490.5,239.5C 1490.2,233.439 1492.53,228.773 1497.5,225.5C 1504.95,222.693 1512.45,220.026 1520,217.5C 1551.16,216.85 1582.32,216.517 1613.5,216.5C 1645.53,216.36 1677.53,216.86 1709.5,218C 1712.54,221.699 1716.54,223.699 1721.5,224C 1727.19,227.694 1730.52,232.861 1731.5,239.5C 1740.19,239.327 1748.86,239.66 1757.5,240.5C 1757.7,242.96 1758.37,245.293 1759.5,247.5C 1766.19,250.185 1770.85,254.852 1773.5,261.5C 1782.83,262.611 1792.17,263.611 1801.5,264.5C 1803.79,270.887 1804.79,277.553 1804.5,284.5C 1811.48,284.152 1818.31,284.819 1825,286.5C 1826.38,293.411 1826.88,300.411 1826.5,307.5C 1833.27,307.2 1839.94,307.867 1846.5,309.5C 1847.53,310.7 1848.36,312.034 1849,313.5C 1849.5,319.157 1849.67,324.824 1849.5,330.5C 1854.87,330.172 1860.21,330.505 1865.5,331.5C 1867.05,332.439 1868.39,333.606 1869.5,335C 1870.99,348.335 1871.99,361.668 1872.5,375C 1883.17,375.333 1893.83,375.667 1904.5,376C 1905.23,377.399 1905.73,378.899 1906,380.5C 1906.17,483.458 1906.17,586.458 1906,689.5C 1905.67,696.833 1905.33,704.167 1905,711.5C 1901.57,712.396 1898.07,713.062 1894.5,713.5C 1894.9,726.552 1894.4,739.552 1893,752.5C 1892.05,754.57 1890.55,756.07 1888.5,757C 1882.9,758.217 1877.23,758.717 1871.5,758.5C 1871.8,765.891 1871.47,773.224 1870.5,780.5C 1867.22,781.324 1863.88,781.824 1860.5,782C 1858.18,786.488 1854.84,789.988 1850.5,792.5C 1849.68,795.785 1849.18,799.118 1849,802.5C 1848.59,802.957 1848.09,803.291 1847.5,803.5C 1847.57,810.948 1845.07,817.281 1840,822.5C 1835.31,824.38 1830.48,825.714 1825.5,826.5C 1824.2,830.804 1823.03,835.137 1822,839.5C 1820.12,843.243 1817.12,845.577 1813,846.5C 1805.81,848.005 1798.64,849.505 1791.5,851C 1789.7,855.304 1786.7,858.471 1782.5,860.5C 1781.94,864.175 1780.94,867.675 1779.5,871C 1772.17,871.333 1764.83,871.667 1757.5,872C 1756.86,877.205 1755.86,882.372 1754.5,887.5C 1748.93,891.63 1742.59,893.63 1735.5,893.5C 1720.5,894.289 1705.5,894.956 1690.5,895.5C 1690.7,900.996 1689.86,906.329 1688,911.5C 1682.92,914.386 1677.42,915.886 1671.5,916C 1648.31,916.808 1625.15,916.641 1602,915.5C 1594.52,916.249 1587.02,916.749 1579.5,917C 1578.25,920.383 1576.91,923.716 1575.5,927C 1562.5,927.667 1549.5,927.667 1536.5,927C 1535.87,924.2 1535.21,921.366 1534.5,918.5C 1533.69,918.192 1533.03,917.692 1532.5,917C 1525.83,916.667 1519.17,916.333 1512.5,916C 1510.65,912.357 1507.65,909.857 1503.5,908.5C 1499.16,905.143 1496.32,900.81 1495,895.5C 1493,895.004 1491.34,894.004 1490,892.5C 1488.84,885.547 1488.34,878.547 1488.5,871.5C 1474.5,871.667 1460.5,871.5 1446.5,871C 1445.33,870.5 1444.5,869.667 1444,868.5C 1443.17,865.207 1442.67,861.874 1442.5,858.5C 1440.69,858.509 1439.02,858.009 1437.5,857C 1436.55,854.133 1434.88,851.8 1432.5,850C 1426.15,849.129 1419.81,848.129 1413.5,847C 1407.61,846.107 1403.94,842.774 1402.5,837C 1401.71,833.542 1401.38,830.042 1401.5,826.5C 1394.72,826.364 1388.22,825.031 1382,822.5C 1379.14,812.663 1376.81,802.663 1375,792.5C 1370.53,790.035 1367.03,786.535 1364.5,782C 1360.67,782.038 1357.17,781.205 1354,779.5C 1352.84,772.547 1352.34,765.547 1352.5,758.5C 1347.13,758.477 1341.79,757.977 1336.5,757C 1335,756.167 1333.83,755 1333,753.5C 1331.31,739.885 1330.48,726.218 1330.5,712.5C 1323.79,712.713 1317.12,712.38 1310.5,711.5C 1309.78,704.533 1309.28,697.533 1309,690.5C 1308.5,710.497 1308.33,730.497 1308.5,750.5C 1309.93,750.421 1311.26,750.754 1312.5,751.5C 1314.24,754.232 1316.24,756.732 1318.5,759C 1316.17,765.822 1313.17,772.322 1309.5,778.5C 1308.5,811.493 1308.17,844.493 1308.5,877.5 Z M 1598.5,284.5 C 1615.17,284.5 1631.83,284.5 1648.5,284.5C 1647.44,291.332 1649.11,297.332 1653.5,302.5C 1668.98,305.575 1684.65,307.242 1700.5,307.5C 1703.19,314.185 1707.85,318.852 1714.5,321.5C 1715.05,348.156 1715.05,374.823 1714.5,401.5C 1702.79,402.856 1696.45,409.522 1695.5,421.5C 1694.2,422.09 1693.37,423.09 1693,424.5C 1692.7,430.533 1692.2,436.533 1691.5,442.5C 1667.83,442.5 1644.17,442.5 1620.5,442.5C 1620.8,436.18 1618.8,430.846 1614.5,426.5C 1609.35,424.729 1604.19,423.062 1599,421.5C 1597.49,415.041 1595.65,408.707 1593.5,402.5C 1588.97,400.562 1584.31,399.229 1579.5,398.5C 1579.5,363.833 1579.5,329.167 1579.5,294.5C 1585.31,293.534 1590.64,291.368 1595.5,288C 1597.06,287.241 1598.06,286.074 1598.5,284.5 Z M 1509.5,315.5 C 1510.5,342.662 1510.83,369.995 1510.5,397.5C 1498.83,397.667 1487.16,397.5 1475.5,397C 1480.16,397.325 1483.66,395.492 1486,391.5C 1488.15,373.087 1487.65,354.754 1484.5,336.5C 1483.16,335.653 1482.16,334.487 1481.5,333C 1476.53,331.842 1471.53,330.842 1466.5,330C 1480.84,329.544 1495.17,329.044 1509.5,328.5C 1509.5,324.167 1509.5,319.833 1509.5,315.5 Z M 1782.5,392.5 C 1789.84,392.334 1797.17,392.5 1804.5,393C 1805.5,395.333 1807.17,397 1809.5,398C 1807.94,398.318 1806.77,399.151 1806,400.5C 1804.63,414.459 1804.13,428.459 1804.5,442.5C 1795.49,442.666 1786.49,442.5 1777.5,442C 1779.77,440.486 1780.93,438.319 1781,435.5C 1781.42,421.161 1781.92,406.827 1782.5,392.5 Z M 1442.5,442.5 C 1443.83,442.5 1445.17,442.5 1446.5,442.5C 1445.9,448.249 1447.06,453.582 1450,458.5C 1454.98,461.727 1460.48,463.227 1466.5,463C 1466.96,463.414 1467.29,463.914 1467.5,464.5C 1476.14,465.498 1484.81,465.831 1493.5,465.5C 1493.15,472.803 1496.15,478.137 1502.5,481.5C 1507.59,482.431 1512.26,484.264 1516.5,487C 1522.16,487.499 1527.82,487.666 1533.5,487.5C 1533.58,499.981 1534.91,512.315 1537.5,524.5C 1538.17,527.167 1539.83,528.833 1542.5,529.5C 1546.72,530.912 1551.05,531.579 1555.5,531.5C 1555.2,545.909 1556.03,560.243 1558,574.5C 1559.83,576.074 1561.99,576.907 1564.5,577C 1569.15,577.499 1573.82,577.666 1578.5,577.5C 1578.83,585.196 1578.5,592.862 1577.5,600.5C 1571,600.85 1564.67,601.85 1558.5,603.5C 1557.75,604.376 1557.25,605.376 1557,606.5C 1556.37,612.161 1555.87,617.828 1555.5,623.5C 1543.41,623.582 1531.57,625.249 1520,628.5C 1515.4,633.559 1513.56,639.559 1514.5,646.5C 1498.48,646.974 1482.48,647.64 1466.5,648.5C 1466.5,635.124 1465.83,621.791 1464.5,608.5C 1463.33,606.58 1462.33,604.58 1461.5,602.5C 1455.54,601.504 1449.54,601.171 1443.5,601.5C 1443.6,562.486 1442.93,523.486 1441.5,484.5C 1441.62,470.49 1441.95,456.49 1442.5,442.5 Z M 1374.5,487.5 C 1375.33,522.664 1375.83,557.998 1376,593.5C 1376.61,600.506 1377.27,607.506 1378,614.5C 1379.29,618.266 1381.79,620.766 1385.5,622C 1389.53,622.392 1393.53,622.892 1397.5,623.5C 1397.33,636.504 1397.5,649.504 1398,662.5C 1398.31,664.556 1398.81,666.556 1399.5,668.5C 1391.53,669.498 1383.53,669.831 1375.5,669.5C 1376.34,649.633 1375.01,629.967 1371.5,610.5C 1370.63,605.47 1367.8,602.136 1363,600.5C 1360.96,593.387 1357.96,586.721 1354,580.5C 1353.5,564.17 1353.33,547.837 1353.5,531.5C 1365.54,529.94 1371.38,522.94 1371,510.5C 1372.89,508.974 1373.89,506.974 1374,504.5C 1374.5,498.843 1374.67,493.176 1374.5,487.5 Z M 1622.5,511.5 C 1632.99,510.341 1643.66,510.175 1654.5,511C 1652.22,511.212 1650.22,512.045 1648.5,513.5C 1647.28,520.129 1646.28,526.795 1645.5,533.5C 1638.64,534.149 1631.8,534.816 1625,535.5C 1624.3,527.334 1623.47,519.334 1622.5,511.5 Z M 1737.5,510.5 C 1759.83,510.5 1782.17,510.5 1804.5,510.5C 1804.5,511.833 1804.5,513.167 1804.5,514.5C 1795.65,513.418 1789.98,517.085 1787.5,525.5C 1786.9,530.472 1785.4,535.139 1783,539.5C 1782.1,552.82 1781.6,566.154 1781.5,579.5C 1776.4,579.429 1771.4,580.096 1766.5,581.5C 1765.5,582.833 1764.5,584.167 1763.5,585.5C 1760.93,598.368 1759.6,611.368 1759.5,624.5C 1753.2,624.059 1747.2,625.059 1741.5,627.5C 1738.41,640.971 1736.74,654.638 1736.5,668.5C 1728.8,668.354 1721.14,668.687 1713.5,669.5C 1713.88,662.411 1713.38,655.411 1712,648.5C 1706.25,647.69 1700.42,647.19 1694.5,647C 1693.58,646.626 1692.75,646.126 1692,645.5C 1691.72,638.467 1691.22,631.467 1690.5,624.5C 1688.21,624.756 1686.04,624.423 1684,623.5C 1681.89,619.737 1680.39,615.737 1679.5,611.5C 1676.5,607.671 1673.17,604.171 1669.5,601C 1675.83,600.667 1682.17,600.333 1688.5,600C 1689.33,599.167 1690.17,598.333 1691,597.5C 1691.21,591.116 1691.71,584.783 1692.5,578.5C 1698.93,577.924 1705.26,576.924 1711.5,575.5C 1712.98,567.929 1713.98,560.262 1714.5,552.5C 1722.13,552.571 1727.79,549.404 1731.5,543C 1732.19,540.205 1732.69,537.372 1733,534.5C 1733.37,533.09 1734.2,532.09 1735.5,531.5C 1736.32,524.504 1736.99,517.504 1737.5,510.5 Z M 1849.5,555.5 C 1850.83,555.5 1852.17,555.5 1853.5,555.5C 1853.45,569.592 1852.28,583.592 1850,597.5C 1849.5,583.504 1849.33,569.504 1849.5,555.5 Z M 1848.5,610.5 C 1849.75,611.334 1850.41,612.667 1850.5,614.5C 1849.55,632.816 1849.22,651.149 1849.5,669.5C 1843.46,669.171 1837.46,669.504 1831.5,670.5C 1831.19,671.308 1830.69,671.975 1830,672.5C 1828.3,686.097 1827.3,699.764 1827,713.5C 1820.56,714.149 1814.06,714.816 1807.5,715.5C 1807.19,716.308 1806.69,716.975 1806,717.5C 1805.1,723.806 1804.6,730.139 1804.5,736.5C 1803.5,736.5 1802.5,736.5 1801.5,736.5C 1803.41,721.321 1796.74,714.654 1781.5,716.5C 1781.5,715.167 1781.5,713.833 1781.5,712.5C 1788.46,713.147 1794.96,711.814 1801,708.5C 1802.63,704.665 1803.63,700.665 1804,696.5C 1804.5,687.173 1804.67,677.839 1804.5,668.5C 1809.18,668.666 1813.85,668.499 1818.5,668C 1820.9,667.269 1823.07,666.102 1825,664.5C 1826.41,650.885 1826.91,637.218 1826.5,623.5C 1831.89,623.595 1837.22,623.095 1842.5,622C 1846.91,619.425 1848.91,615.592 1848.5,610.5 Z M 1621.5,667.5 C 1622.75,667.577 1623.58,668.244 1624,669.5C 1624.33,673.833 1624.67,678.167 1625,682.5C 1625.09,685.007 1625.93,687.174 1627.5,689C 1633.76,690.317 1640.09,690.817 1646.5,690.5C 1646.25,697.605 1646.92,704.605 1648.5,711.5C 1649.03,712.192 1649.69,712.692 1650.5,713C 1656.49,713.499 1662.49,713.666 1668.5,713.5C 1668.5,721.5 1668.5,729.5 1668.5,737.5C 1661.91,737.189 1655.41,737.522 1649,738.5C 1647.62,745.755 1646.78,753.089 1646.5,760.5C 1639.49,760.334 1632.49,760.5 1625.5,761C 1624.62,764.45 1623.78,767.95 1623,771.5C 1619.03,774.256 1615.87,777.756 1613.5,782C 1593.84,782.5 1574.17,782.667 1554.5,782.5C 1554.71,775.811 1553.37,769.478 1550.5,763.5C 1545.03,761.606 1539.37,760.606 1533.5,760.5C 1533.86,752.999 1533.03,745.665 1531,738.5C 1524.59,737.522 1518.09,737.189 1511.5,737.5C 1511.46,734.19 1512.79,731.524 1515.5,729.5C 1518.33,724.512 1520,719.179 1520.5,713.5C 1531.17,713.667 1541.84,713.5 1552.5,713C 1554.91,711.535 1555.91,709.368 1555.5,706.5C 1558.27,706.579 1560.94,706.079 1563.5,705C 1564.31,703.294 1565.64,702.461 1567.5,702.5C 1569.77,699.058 1571.44,695.225 1572.5,691C 1579.17,690.667 1585.83,690.333 1592.5,690C 1594.78,689.767 1596.78,688.934 1598.5,687.5C 1600.25,681.306 1600.92,674.973 1600.5,668.5C 1607.69,668.825 1614.69,668.491 1621.5,667.5 Z M 1441.5,750.5 C 1442.59,753.739 1444.26,756.739 1446.5,759.5C 1443.43,762.302 1441.43,761.636 1440.5,757.5C 1441,755.182 1441.33,752.848 1441.5,750.5 Z M 1464.5,779.5 C 1467.34,782.187 1466.67,783.021 1462.5,782C 1463.76,781.583 1464.42,780.75 1464.5,779.5 Z M 1714.5,781.5 C 1723.17,781.5 1731.83,781.5 1740.5,781.5C 1737.85,789.214 1736.85,797.214 1737.5,805.5C 1724.95,804.85 1712.62,806.016 1700.5,809C 1695.59,814.081 1693.59,820.248 1694.5,827.5C 1685.16,827.666 1675.83,827.5 1666.5,827C 1674.22,826.801 1681.88,826.301 1689.5,825.5C 1690.25,824.624 1690.75,823.624 1691,822.5C 1691.5,816.175 1691.67,809.842 1691.5,803.5C 1698.17,803.666 1704.84,803.5 1711.5,803C 1712,802.5 1712.5,802 1713,801.5C 1713.29,794.8 1713.79,788.133 1714.5,781.5 Z M 1487.5,803.5 C 1490.9,803.18 1494.23,803.513 1497.5,804.5C 1495.83,804.833 1494.17,805.167 1492.5,805.5C 1490.36,805.444 1488.69,804.777 1487.5,803.5 Z"/></g>
<g><path style="opacity:0.963" fill="#f3f4f7" d="M 598.5,352.5 C 676.198,352.018 753.864,352.518 831.5,354C 832.047,354.925 832.713,355.758 833.5,356.5C 843.407,358.017 849.074,363.683 850.5,373.5C 851.167,374.167 851.833,374.833 852.5,375.5C 859.439,375.993 866.272,376.993 873,378.5C 875.239,381.441 876.572,384.774 877,388.5C 877.226,392.887 877.726,397.221 878.5,401.5C 888.006,404.504 893.84,410.838 896,420.5C 899.465,420.967 901.132,422.967 901,426.5C 901.667,527.833 901.667,629.167 901,730.5C 900.707,732.925 899.541,734.758 897.5,736C 823.501,736.5 749.501,736.667 675.5,736.5C 675.5,759.5 675.5,782.5 675.5,805.5C 688.291,805.045 700.958,806.045 713.5,808.5C 716.5,808.167 719.5,807.833 722.5,807.5C 722.709,806.914 723.043,806.414 723.5,806C 729.825,805.5 736.158,805.334 742.5,805.5C 742.735,799.151 743.235,792.817 744,786.5C 746.218,781.748 747.551,776.748 748,771.5C 749.811,768.231 752.311,765.564 755.5,763.5C 765.517,761.16 775.684,760.16 786,760.5C 792.886,760.442 799.719,760.942 806.5,762C 809.359,768.503 810.692,775.336 810.5,782.5C 822.851,782.168 835.185,782.501 847.5,783.5C 848.729,784.281 850.062,784.781 851.5,785C 854.544,791.458 855.877,798.291 855.5,805.5C 867.838,805.333 880.171,805.5 892.5,806C 894.441,806.304 896.107,807.137 897.5,808.5C 898.641,811.062 899.474,813.728 900,816.5C 901.99,847.166 901.99,877.832 900,908.5C 899.501,911.666 897.834,913.999 895,915.5C 889.55,916.43 884.05,916.763 878.5,916.5C 878.5,920.167 878.5,923.833 878.5,927.5C 766.177,928.801 653.843,928.801 541.5,927.5C 540.407,916.531 539.74,905.531 539.5,894.5C 532.997,894.894 526.664,894.228 520.5,892.5C 519.69,890.202 518.856,887.868 518,885.5C 517.667,878.5 517.333,871.5 517,864.5C 516.333,728.833 516.333,593.167 517,457.5C 517.333,453.5 517.667,449.5 518,445.5C 519.834,439.034 522.167,432.701 525,426.5C 529.748,424.862 534.581,423.529 539.5,422.5C 539.413,415.46 539.913,408.46 541,401.5C 542.242,399.459 544.075,398.293 546.5,398C 551.489,397.501 556.489,397.334 561.5,397.5C 561.478,390.885 562.145,384.385 563.5,378C 565.087,377.138 566.754,376.471 568.5,376C 574.157,375.501 579.824,375.334 585.5,375.5C 585.008,368.679 585.675,362.012 587.5,355.5C 591.094,353.999 594.761,352.999 598.5,352.5 Z M 675.5,510.5 C 697.833,510.5 720.167,510.5 742.5,510.5C 742.446,519.741 743.613,528.741 746,537.5C 747.115,551.145 747.615,564.811 747.5,578.5C 723.5,578.5 699.5,578.5 675.5,578.5C 675.5,555.833 675.5,533.167 675.5,510.5 Z"/></g>
<g><path style="opacity:0.967" fill="#f3f4f7" d="M 336.5,758.5 C 335.262,758.81 335.262,759.31 336.5,760C 339.002,761.432 341.502,761.598 344,760.5C 347.491,761.434 350.991,762.434 354.5,763.5C 356.759,766.08 357.426,768.913 356.5,772C 357.047,772.925 357.713,773.758 358.5,774.5C 358.833,773 359.167,771.5 359.5,770C 361.095,740.643 360.762,711.309 358.5,682C 358.707,678.233 359.374,674.566 360.5,671C 359.351,667.1 358.685,663.1 358.5,659C 359.657,643.86 360.323,628.694 360.5,613.5C 360.499,601.148 359.832,589.148 358.5,577.5C 359.785,535.167 359.785,492.834 358.5,450.5C 359.117,434.17 359.617,417.837 360,401.5C 361.583,399.945 363.416,398.778 365.5,398C 373.159,397.5 380.826,397.334 388.5,397.5C 390.117,388.398 395.45,383.065 404.5,381.5C 404.286,379.856 404.62,378.356 405.5,377C 414.107,375.661 422.774,375.161 431.5,375.5C 431.558,370.38 433.058,365.714 436,361.5C 441.103,358.622 446.269,356.122 451.5,354C 463.776,352.416 476.109,352.083 488.5,353C 492.264,353.459 494.097,355.626 494,359.5C 494.667,529.167 494.667,698.833 494,868.5C 493.156,875.229 491.99,881.896 490.5,888.5C 489.155,889.347 488.155,890.513 487.5,892C 482.567,893.318 477.567,894.151 472.5,894.5C 472.666,900.842 472.5,907.175 472,913.5C 471.326,918.248 470.16,922.748 468.5,927C 402.156,928.768 335.823,928.935 269.5,927.5C 269.772,923.098 269.439,918.765 268.5,914.5C 256.607,913.794 250.44,907.461 250,895.5C 248.667,894.833 247.667,893.833 247,892.5C 245.742,897.563 244.908,902.73 244.5,908C 244.168,910.492 243.168,912.658 241.5,914.5C 235.654,916.029 229.654,917.029 223.5,917.5C 235.511,918.223 247.511,919.056 259.5,920C 263.003,921.235 265.336,923.569 266.5,927C 192.843,928.589 119.177,928.923 45.5,928C 41.8333,927.667 38.1667,927.333 34.5,927C 31.6626,923.998 29.6626,920.498 28.5,916.5C 25.305,917.039 22.805,916.039 21,913.5C 20.6667,899.833 20.3333,886.167 20,872.5C 13.1677,871.816 6.33441,871.149 -0.5,870.5C -0.5,714.167 -0.5,557.833 -0.5,401.5C 1.94099,399.591 4.77433,398.591 8,398.5C 19.8164,397.623 31.6497,397.289 43.5,397.5C 43.2427,391.102 43.7427,384.769 45,378.5C 45.7504,377.874 46.5838,377.374 47.5,377C 61.137,375.745 74.8037,375.245 88.5,375.5C 88.0638,368.696 88.7305,362.029 90.5,355.5C 91.0253,354.808 91.6919,354.308 92.5,354C 110.154,352.406 127.821,352.406 145.5,354C 148.028,354.514 150.195,355.68 152,357.5C 152.794,360.471 153.461,363.471 154,366.5C 154.848,497.832 155.515,629.166 156,760.5C 156.007,746.592 156.84,732.759 158.5,719C 159.613,717.606 160.947,716.439 162.5,715.5C 167.792,714.505 173.125,714.172 178.5,714.5C 178.333,703.495 178.5,692.495 179,681.5C 179.248,676.555 181.415,672.888 185.5,670.5C 190.792,669.505 196.125,669.172 201.5,669.5C 201.333,658.828 201.5,648.161 202,637.5C 202.315,634.628 202.815,631.795 203.5,629C 204.59,626.94 206.257,625.607 208.5,625C 213.823,624.501 219.156,624.334 224.5,624.5C 224.076,612.067 224.91,599.734 227,587.5C 228.524,584.764 230.691,582.764 233.5,581.5C 241.833,578.833 250.167,578.833 258.5,581.5C 261.102,582.435 263.102,584.102 264.5,586.5C 265.078,592.603 266.245,598.603 268,604.5C 268.5,610.825 268.666,617.158 268.5,623.5C 275.555,623.782 282.555,624.449 289.5,625.5C 290.308,627.423 290.808,629.423 291,631.5C 291.5,643.829 291.667,656.162 291.5,668.5C 297.882,668.686 304.215,669.353 310.5,670.5C 311.242,671.287 312.075,671.953 313,672.5C 314.429,686.441 314.929,700.441 314.5,714.5C 321.383,713.927 328.049,714.593 334.5,716.5C 335.298,718.078 335.798,719.744 336,721.5C 336.5,733.829 336.667,746.162 336.5,758.5 Z"/></g>
<g><path style="opacity:0.031" fill="#e1fffe" d="M 153.5,532.5 C 152.833,532.5 152.167,532.5 151.5,532.5C 151.794,490.818 151.46,449.152 150.5,407.5C 151.5,407.5 152.5,407.5 153.5,407.5C 153.5,449.167 153.5,490.833 153.5,532.5 Z"/></g>
<g><path style="opacity:0.05" fill="#ebebfe" d="M 1432.5,447.5 C 1433.47,447.987 1434.47,448.487 1435.5,449C 1434.58,449.85 1434.58,450.85 1435.5,452C 1434.84,454.464 1434.34,456.964 1434,459.5C 1433.67,459.167 1433.33,458.833 1433,458.5C 1431.71,459.854 1431.54,461.188 1432.5,462.5C 1431.99,469.03 1430.82,474.696 1429,479.5C 1428.89,489.032 1428.73,498.532 1428.5,508C 1430.04,511.549 1432.37,514.549 1435.5,517C 1436.41,518.789 1436.58,520.623 1436,522.5C 1434.06,516.725 1430.23,512.725 1424.5,510.5C 1423.59,504.146 1423.93,497.813 1425.5,491.5C 1423.85,483.377 1424.52,476.21 1427.5,470C 1427.44,468.564 1427.11,467.231 1426.5,466C 1428.26,463.07 1429.42,459.903 1430,456.5C 1430.33,456.833 1430.67,457.167 1431,457.5C 1432.22,454.035 1432.72,450.702 1432.5,447.5 Z"/></g>
<g><path style="opacity:0.011" fill="#fefffe" d="M 1107.5,502.5 C 1109.16,503.575 1110.99,504.242 1113,504.5C 1115.31,504.12 1117.64,503.786 1120,503.5C 1125.12,504.813 1130.12,506.48 1135,508.5C 1137.04,508.643 1139.21,508.309 1141.5,507.5C 1144.11,508.23 1146.78,508.73 1149.5,509C 1151.02,510.885 1152.02,513.051 1152.5,515.5C 1150.19,517.652 1150.52,519.652 1153.5,521.5C 1153.64,522.903 1153.64,524.403 1153.5,526C 1154.58,528.056 1156.25,529.389 1158.5,530C 1158.17,530.333 1157.83,530.667 1157.5,531C 1162.24,531.879 1167.24,532.379 1172.5,532.5C 1172.5,615.833 1172.5,699.167 1172.5,782.5C 1167.75,783.228 1163.09,784.395 1158.5,786C 1156.33,787.759 1154.67,789.926 1153.5,792.5C 1155.02,794.156 1154.69,795.323 1152.5,796C 1153.02,796.561 1153.36,797.228 1153.5,798C 1151.43,799.95 1151.1,802.117 1152.5,804.5C 1151.26,805.281 1150.26,806.281 1149.5,807.5C 1144.37,808.366 1139.37,809.7 1134.5,811.5C 1132.79,814.259 1131.46,816.759 1130.5,819C 1132.15,821.411 1131.49,822.578 1128.5,822.5C 1128.29,824.144 1128.62,825.644 1129.5,827C 1113.5,827.5 1097.5,827.667 1081.5,827.5C 1081.83,719.93 1081.5,612.43 1080.5,505C 1089.72,504.881 1098.72,504.047 1107.5,502.5 Z M 1082.5,510.5 C 1082.5,612.167 1082.5,713.833 1082.5,815.5C 1097.32,810.126 1112.65,808.126 1128.5,809.5C 1128.5,808.5 1128.5,807.5 1128.5,806.5C 1135.46,805.614 1142.46,805.28 1149.5,805.5C 1150.03,793.405 1151.36,781.405 1153.5,769.5C 1154.72,713.975 1156.39,658.475 1158.5,603C 1159.21,579.585 1157.54,556.418 1153.5,533.5C 1152.91,533.291 1152.41,532.957 1152,532.5C 1149.89,525.325 1149.06,517.992 1149.5,510.5C 1127.17,510.5 1104.83,510.5 1082.5,510.5 Z"/></g>
<g><path style="opacity:0.048" fill="#e9e9ff" d="M 151.5,532.5 C 152.167,532.5 152.833,532.5 153.5,532.5C 153.269,606.836 152.769,681.169 152,755.5C 150.854,744.427 150.354,733.26 150.5,722C 151.382,658.832 151.715,595.666 151.5,532.5 Z"/></g>
<g><path style="opacity:0.009" fill="#fefffe" d="M 358.5,577.5 C 359.832,589.148 360.499,601.148 360.5,613.5C 360.323,628.694 359.657,643.86 358.5,659C 358.685,663.1 359.351,667.1 360.5,671C 359.374,674.566 358.707,678.233 358.5,682C 360.762,711.309 361.095,740.643 359.5,770C 359.167,771.5 358.833,773 358.5,774.5C 357.713,773.758 357.047,772.925 356.5,772C 357.426,768.913 356.759,766.08 354.5,763.5C 350.991,762.434 347.491,761.434 344,760.5C 341.502,761.598 339.002,761.432 336.5,760C 335.262,759.31 335.262,758.81 336.5,758.5C 338.284,757.426 339.451,755.76 340,753.5C 341.963,748.649 343.463,743.649 344.5,738.5C 344.973,716.294 345.973,694.127 347.5,672C 349.26,663.345 352.76,655.512 358,648.5C 358.5,624.836 358.667,601.169 358.5,577.5 Z"/></g>
<g><path style="opacity:0.059" fill="#eae9fe" d="M 517.5,465.5 C 518.552,465.351 519.552,465.517 520.5,466C 519.834,595.432 519.168,724.932 518.5,854.5C 518.558,725.093 518.224,595.426 517.5,465.5 Z"/></g>
</svg>
