<svg width="46" height="47" viewBox="0 0 46 47" fill="none" xmlns="http://www.w3.org/2000/svg">
<path fill-rule="evenodd" clip-rule="evenodd" d="M41.2275 5.56677C40.1518 4.49983 38.6984 3.90058 37.1833 3.89927C35.8709 3.90353 34.5993 4.35668 33.58 5.18343L15.6208 19.7884L15.3333 20.0759C12.8302 22.5576 12.2749 26.3977 13.9725 29.4868C13.2761 29.2743 12.5538 29.1582 11.8258 29.1418C7.59165 29.1418 4.15917 32.5742 4.15917 36.8084V41.6001C4.15917 43.1879 5.44635 44.4751 7.03417 44.4751H11.8258C14.4873 44.4605 16.9508 43.0666 18.3339 40.7927C19.7171 38.5187 19.8219 35.6902 18.6108 33.3201C19.3769 33.5787 20.179 33.7146 20.9875 33.7226C23.1103 33.7368 25.149 32.8937 26.6417 31.3843L26.8333 31.1734L41.5342 13.2143C43.3897 10.9574 43.2578 7.66779 41.2275 5.56677ZM11.9025 41.6001H7.11083V36.8084C7.11083 34.1621 9.25613 32.0168 11.9025 32.0168C14.5489 32.0168 16.6942 34.1621 16.6942 36.8084C16.6942 39.4548 14.5489 41.6001 11.9025 41.6001ZM24.6867 29.3718L39.3875 11.3934C40.2886 10.2647 40.1978 8.63909 39.1765 7.61779C38.1552 6.5965 36.5296 6.50564 35.4008 7.40677L17.4417 22.1076C15.4357 24.1083 15.4314 27.3562 17.4321 29.3622C19.4327 31.3681 22.6807 31.3724 24.6867 29.3718Z" fill="#161925"/>
<path d="M25.3 19.4626L19.55 25.2126C18.9895 25.7738 18.9895 26.683 19.55 27.2443C20.1112 27.8048 21.0204 27.8048 21.5817 27.2443L27.3317 21.4943C27.7163 21.1359 27.8746 20.5962 27.7445 20.0869C27.6144 19.5776 27.2167 19.1798 26.7074 19.0498C26.1981 18.9197 25.6584 19.078 25.3 19.4626Z" fill="#161925"/>
</svg>
