<svg width="46" height="46" viewBox="0 0 46 46" fill="none" xmlns="http://www.w3.org/2000/svg">
<path fill-rule="evenodd" clip-rule="evenodd" d="M19.1667 15.3333H26.8333C28.9504 15.3333 30.6667 17.0496 30.6667 19.1667V26.8333C30.6667 28.9504 28.9504 30.6667 26.8333 30.6667H19.1667C17.0496 30.6667 15.3333 28.9504 15.3333 26.8333V19.1667C15.3333 17.0496 17.0496 15.3333 19.1667 15.3333ZM26.8333 27.7917C27.3626 27.7917 27.7917 27.3626 27.7917 26.8333V19.1667C27.7917 18.6374 27.3626 18.2083 26.8333 18.2083H19.1667C18.6374 18.2083 18.2083 18.6374 18.2083 19.1667V26.8333C18.2083 27.3626 18.6374 27.7917 19.1667 27.7917H26.8333Z" fill="#161925"/>
<path fill-rule="evenodd" clip-rule="evenodd" d="M36.4167 25.3958H42.1667C42.9606 25.3958 43.6042 26.0394 43.6042 26.8333C43.6042 27.6272 42.9606 28.2708 42.1667 28.2708H36.4167V28.75C36.4167 32.9842 32.9842 36.4167 28.75 36.4167H28.2708V42.1667C28.2708 42.9606 27.6272 43.6042 26.8333 43.6042C26.0394 43.6042 25.3958 42.9606 25.3958 42.1667V36.4167H20.6042V42.1667C20.6042 42.9606 19.9606 43.6042 19.1667 43.6042C18.3728 43.6042 17.7292 42.9606 17.7292 42.1667V36.4167H17.25C13.0158 36.4167 9.58334 32.9842 9.58334 28.75V28.2708H3.83334C3.03943 28.2708 2.39584 27.6272 2.39584 26.8333C2.39584 26.0394 3.03943 25.3958 3.83334 25.3958H9.58334V20.6042H3.83334C3.03943 20.6042 2.39584 19.9606 2.39584 19.1667C2.39584 18.3728 3.03943 17.7292 3.83334 17.7292H9.58334V17.25C9.58334 13.0158 13.0158 9.58334 17.25 9.58334H17.7292V3.83334C17.7292 3.03943 18.3728 2.39584 19.1667 2.39584C19.9606 2.39584 20.6042 3.03943 20.6042 3.83334V9.58334H25.3958V3.83334C25.3958 3.03943 26.0394 2.39584 26.8333 2.39584C27.6272 2.39584 28.2708 3.03943 28.2708 3.83334V9.58334H28.75C32.9842 9.58334 36.4167 13.0158 36.4167 17.25V17.7292H42.1667C42.9606 17.7292 43.6042 18.3728 43.6042 19.1667C43.6042 19.9606 42.9606 20.6042 42.1667 20.6042H36.4167V25.3958ZM28.75 33.5417C31.3964 33.5417 33.5417 31.3964 33.5417 28.75V17.25C33.5417 14.6036 31.3964 12.4583 28.75 12.4583H17.25C14.6036 12.4583 12.4583 14.6036 12.4583 17.25V28.75C12.4583 31.3964 14.6036 33.5417 17.25 33.5417H28.75Z" fill="#161925"/>
</svg>
