<svg width="46" height="46" viewBox="0 0 46 46" fill="none" xmlns="http://www.w3.org/2000/svg">
<path fill-rule="evenodd" clip-rule="evenodd" d="M13.57 6.15246C14.994 6.1529 16.3004 6.94264 16.9625 8.20329L20.7383 15.4866C21.3531 16.6732 21.3055 18.0943 20.6128 19.237C19.92 20.3798 18.6822 21.0794 17.3458 21.0833H9.79417C8.4442 21.1065 7.18159 20.4177 6.47024 19.2701C5.7589 18.1225 5.70373 16.6854 6.32501 15.4866L10.1583 8.20329C10.8237 6.93652 12.1392 6.14576 13.57 6.15246ZM17.3458 18.2466C17.6823 18.2486 17.9951 18.074 18.17 17.7866V17.7483C18.3445 17.4868 18.3734 17.1543 18.2467 16.8666L14.4133 9.58329C14.2695 9.27683 13.9659 9.07692 13.6275 9.06579C13.2683 9.0532 12.9335 9.24667 12.765 9.56412L8.93167 16.8475C8.77678 17.1464 8.7901 17.5047 8.96677 17.7912C9.14343 18.0778 9.45753 18.2507 9.79417 18.2466H17.3458Z" fill="#161925"/>
<path fill-rule="evenodd" clip-rule="evenodd" d="M40.0583 13.4167C40.0583 17.6508 36.6259 21.0833 32.3917 21.0833C28.1575 21.0833 24.725 17.6508 24.725 13.4167C24.725 9.18248 28.1575 5.75 32.3917 5.75C36.6259 5.75 40.0583 9.18248 40.0583 13.4167ZM37.1833 13.4167C37.1833 10.7703 35.038 8.625 32.3917 8.625C31.1208 8.625 29.9021 9.12983 29.0035 10.0284C28.1048 10.9271 27.6 12.1458 27.6 13.4167C27.6 16.063 29.7453 18.2083 32.3917 18.2083C35.038 18.2083 37.1833 16.063 37.1833 13.4167Z" fill="#161925"/>
<path fill-rule="evenodd" clip-rule="evenodd" d="M28.5583 24.9167H36.225C38.3421 24.9167 40.0583 26.6329 40.0583 28.75V36.4167C40.0583 38.5338 38.3421 40.25 36.225 40.25H28.5583C26.4412 40.25 24.725 38.5338 24.725 36.4167V28.75C24.725 26.6329 26.4412 24.9167 28.5583 24.9167ZM36.225 37.375C36.7543 37.375 37.1833 36.9459 37.1833 36.4167V28.75C37.1833 28.2207 36.7543 27.7917 36.225 27.7917H28.5583C28.0291 27.7917 27.6 28.2207 27.6 28.75V36.4167C27.6 36.9459 28.0291 37.375 28.5583 37.375H36.225Z" fill="#161925"/>
<path d="M20.3358 25.2233C20.0689 24.9493 19.7025 24.7948 19.32 24.7948C18.9375 24.7948 18.5711 24.9493 18.3042 25.2233L13.57 29.9575L8.83584 25.2233C8.26944 24.6956 7.38682 24.7111 6.8394 25.2586C6.29197 25.806 6.2764 26.6886 6.80417 27.255L11.5 31.9892L6.80417 36.7233C6.53019 36.9903 6.37566 37.3566 6.37566 37.7392C6.37566 38.1217 6.53019 38.488 6.80417 38.755C7.0758 39.0212 7.43971 39.1723 7.82001 39.1767C8.1995 39.1684 8.56205 39.0179 8.83584 38.755L13.57 34.0208L18.3042 38.755C18.5758 39.0212 18.9397 39.1723 19.32 39.1767C19.6995 39.1684 20.0621 39.0179 20.3358 38.755C20.8964 38.1938 20.8964 37.2846 20.3358 36.7233L15.6017 31.9892L20.3358 27.255C20.8964 26.6938 20.8964 25.7846 20.3358 25.2233Z" fill="#161925"/>
</svg>
